<?xml version="1.0" encoding="iso-8859-1"?>
<!-- Uploaded to: SVG Repo, www.svgrepo.com, Generator: SVG Repo Mixer Tools -->
<svg height="800px" width="800px" version="1.1" id="Layer_1" xmlns="http://www.w3.org/2000/svg" xmlns:xlink="http://www.w3.org/1999/xlink" 
	 viewBox="0 0 511.983 511.983" xml:space="preserve">
<g>
	<path style="fill:#EAC6BB;" d="M235.875,511.983c-76.982,0-139.394-62.404-139.394-139.387
		c0-76.981,62.412-139.401,139.394-139.401c76.99,0,139.393,62.42,139.393,139.401C375.268,449.579,312.865,511.983,235.875,511.983
		z"/>
	<path style="fill:#EAC6BB;" d="M291.085,356.082h59.545V56.732c0-16.421-13.358-29.765-29.765-29.765s-29.78,13.344-29.78,29.765
		V356.082z"/>
	<path style="fill:#EAC6BB;" d="M226.227,329.13h59.53V29.764C285.757,13.359,272.399,0,255.992,0
		c-16.414,0-29.765,13.358-29.765,29.764V329.13z"/>
	<path style="fill:#EAC6BB;" d="M161.354,356.082h59.537V56.732c0-16.421-13.358-29.765-29.772-29.765s-29.765,13.344-29.765,29.765
		V356.082z"/>
	<path style="fill:#EAC6BB;" d="M96.482,372.596h59.537V110.653c0-16.422-13.352-29.765-29.765-29.765s-29.772,13.343-29.772,29.765
		C96.482,110.653,96.482,372.596,96.482,372.596z"/>
</g>
<path style="fill:#ED5564;" d="M479.984,107.216H31.999C14.359,107.216,0,121.574,0,139.215v170.666
	c0,17.64,14.358,31.999,31.999,31.999h447.985c17.655,0,31.999-14.359,31.999-31.999V139.215
	C511.983,121.574,497.639,107.216,479.984,107.216z"/>
<g>
	<path style="fill:#DA4453;" d="M408.455,153.011c-4.171,4.156-4.171,10.922,0,15.078c4.156,4.172,10.906,4.172,15.078,0
		c4.171-4.156,4.171-10.922,0-15.078C419.361,148.839,412.611,148.839,408.455,153.011z"/>
	<path style="fill:#DA4453;" d="M408.455,195.666c-4.171,4.172-4.171,10.921,0,15.093c4.156,4.172,10.906,4.172,15.078,0
		c4.171-4.172,4.171-10.921,0-15.093C419.361,191.51,412.611,191.51,408.455,195.666z"/>
	<path style="fill:#DA4453;" d="M408.455,238.336c-4.171,4.172-4.171,10.922,0,15.094c4.156,4.155,10.906,4.155,15.078,0
		c4.171-4.172,4.171-10.922,0-15.094C419.361,234.18,412.611,234.18,408.455,238.336z"/>
</g>
<g>
	<path style="fill:#E6E9ED;" d="M144.363,291.131c-4.976,0-9.429-3.5-10.445-8.578l-15.085-75.419
		c-1.156-5.765,2.594-11.39,8.367-12.546c5.781-1.156,11.398,2.594,12.555,8.359l15.085,75.435
		c1.148,5.765-2.594,11.39-8.367,12.546C145.761,291.068,145.058,291.131,144.363,291.131z"/>
	<path style="fill:#E6E9ED;" d="M129.301,215.712c-0.688,0-1.391-0.062-2.102-0.203L51.78,200.416
		c-5.781-1.156-9.523-6.766-8.367-12.547s6.773-9.515,12.547-8.374l75.427,15.093c5.773,1.156,9.523,6.781,8.367,12.546
		C138.738,212.212,134.285,215.712,129.301,215.712z"/>
</g>
<path style="fill:#DA4453;" d="M408.455,281.007c-4.171,4.155-4.171,10.921,0,15.077c4.156,4.172,10.906,4.172,15.078,0
	c4.171-4.156,4.171-10.922,0-15.077C419.361,276.835,412.611,276.835,408.455,281.007z"/>
<path style="fill:#F5F7FA;" d="M167.003,167.339c-4.164-4.172-10.921-4.172-15.085,0l-72.294,72.294H53.866
	c-5.891,0-10.664,4.781-10.664,10.672s4.773,10.655,10.664,10.655h19.507v19.516c0,5.89,4.773,10.655,10.664,10.655
	c5.891,0,10.671-4.766,10.671-10.655v-25.765l72.294-72.295C171.167,178.261,171.167,171.495,167.003,167.339z"/>
<path style="fill:#FFCE54;" d="M458.657,289.662c-5.891,0-10.672-4.781-10.672-10.671V171.214c0-5.891,4.781-10.656,10.672-10.656
	s10.672,4.766,10.672,10.656v107.777C469.329,284.881,464.548,289.662,458.657,289.662z"/>
<g>
	<path style="fill:#434A54;" d="M213.329,192.556h149.33c5.891,0,10.672-4.781,10.672-10.672c0-5.89-4.781-10.671-10.672-10.671
		h-149.33c-5.89,0-10.663,4.781-10.663,10.671C202.666,187.775,207.439,192.556,213.329,192.556z"/>
	<path style="fill:#434A54;" d="M362.659,213.884h-149.33c-5.89,0-10.663,4.781-10.663,10.671c0,5.891,4.773,10.656,10.663,10.656
		h149.33c5.891,0,10.672-4.766,10.672-10.656S368.55,213.884,362.659,213.884z"/>
	<path style="fill:#434A54;" d="M298.662,256.554h-85.333c-5.89,0-10.663,4.766-10.663,10.656s4.773,10.672,10.663,10.672h85.333
		c5.891,0,10.672-4.781,10.672-10.672S304.553,256.554,298.662,256.554z"/>
</g>
<path style="fill:#EAC6BB;" d="M433.048,289.506l0.016-0.016c4.859-9.452,5.766-20.233,2.531-30.358
	c-3.234-10.124-10.234-18.39-19.687-23.265c-5.703-2.938-11.827-4.438-18.202-4.438c-14.984,0-28.562,8.281-35.422,21.594
	l-71.199,137.995l73.137,34.873l68.826-136.354L433.048,289.506L433.048,289.506z"/>
</svg>